<svg width="1026" height="292" viewBox="0 0 1026 292" fill="none" xmlns="http://www.w3.org/2000/svg">
<path d="M91.2428 217.085V242.981C91.2428 274.157 75.6909 291.92 45.5857 291.92C15.4806 291.92 0 274.157 0 242.981V141.68C0 110.576 15.5519 92.7412 45.6571 92.7412C75.7622 92.7412 91.3141 110.576 91.3141 141.68V160.585H62.3504V139.754C62.3504 125.843 56.2153 120.563 46.5131 120.563C36.7397 120.563 30.6758 125.843 30.6758 139.754V244.908C30.6758 258.819 36.811 263.813 46.5131 263.813C56.2153 263.813 62.3504 258.819 62.3504 244.908V217.085H91.2428Z" fill="#009B63"/>
<path d="M140.538 289.708H109.862V94.9521H140.467V178.419H175.28V94.9521H206.456V289.708H175.28V206.241H140.538V289.708Z" fill="#009B63"/>
<path d="M327.732 289.708H296.842L291.563 254.395H254.039L248.76 289.708H220.652L251.827 94.9521H296.628L327.732 289.708ZM257.891 227.928H287.354L272.658 129.48L257.891 227.928Z" fill="#009B63"/>
<path d="M341.929 94.9521H372.533V261.886H422.899V289.708H341.929V94.9521Z" fill="#009B63"/>
<path d="M524.985 217.085V242.981C524.985 274.157 509.433 291.92 479.328 291.92C449.223 291.92 433.671 274.085 433.671 242.981V141.68C433.742 110.576 449.294 92.7412 479.399 92.7412C509.504 92.7412 525.056 110.576 525.056 141.68V160.585H496.093V139.754C496.093 125.843 489.958 120.563 480.255 120.563C470.482 120.563 464.418 125.843 464.418 139.754V244.908C464.418 258.819 470.553 263.813 480.255 263.813C489.958 263.813 496.093 258.819 496.093 244.908V217.085H524.985Z" fill="#009B63"/>
<path d="M574.28 289.708H543.676V94.9521H574.28V178.419H609.094V94.9521H640.269V289.708H609.094V206.241H574.28V289.708Z" fill="#009B63"/>
<path d="M662.455 94.9521H693.06V289.708H662.455V94.9521Z" fill="#009B63"/>
<path d="M706.4 94.9521H800.996V122.774H768.965V289.708H738.36V122.774H706.329V94.9521H706.4Z" fill="#009B63"/>
<path d="M878.328 289.708C876.687 284.714 875.546 281.647 875.546 265.809V235.205C875.546 217.085 869.411 210.45 855.5 210.45H844.941V289.779H814.337V94.9521H860.493C892.239 94.9521 905.865 109.719 905.865 139.753V155.091C905.865 175.137 899.444 188.192 885.819 194.613C901.157 201.033 906.15 215.729 906.15 236.061V266.095C906.15 275.583 906.436 282.503 909.503 289.708H878.328ZM844.941 122.774V182.628H856.926C868.341 182.628 875.261 177.634 875.261 162.011V142.821C875.261 128.91 870.552 122.774 859.709 122.774H844.941V122.774Z" fill="#009B63"/>
<path d="M1025.22 289.708H994.325L989.046 254.395H951.522L946.243 289.708H918.135L949.31 94.9521H994.111L1025.22 289.708ZM955.374 227.928H984.837L970.07 129.409L955.374 227.928Z" fill="#009B63"/>
<path d="M62.3503 217.084V251.969L54.075 291.419L68.6281 287.282L79.543 279.363L86.891 267.806L91.1713 245.905L91.2427 217.084H62.3503Z" fill="url(#paint0_linear_1024_305)"/>
<path d="M495.807 217.084V251.969L487.532 291.419L502.085 287.282L513 279.363L520.348 267.806L524.628 245.905L524.7 217.084H495.807Z" fill="url(#paint1_linear_1024_305)"/>
<path d="M341.929 289.708L372.533 261.885H422.899V289.708H341.929Z" fill="url(#paint2_linear_1024_305)"/>
<path d="M109.862 268.663L156.589 178.704L175.28 178.419V94.9521H206.456V289.708H175.28V206.241H140.538V289.708H109.862V268.663Z" fill="url(#paint3_linear_1024_305)"/>
<path d="M543.605 268.663L590.332 178.704L609.023 178.419V94.9521H640.198V289.708H609.023V206.241H574.28V289.708H543.605V268.663Z" fill="url(#paint4_linear_1024_305)"/>
<path d="M254.039 254.395L287.425 227.928L272.658 129.48L296.557 94.9521L327.732 289.708H296.842L291.563 254.395H254.039Z" fill="url(#paint5_linear_1024_305)"/>
<path d="M951.593 254.395L984.98 227.928L970.284 129.48L994.183 94.9521L1025.36 289.708H994.468L989.189 254.395H951.593Z" fill="url(#paint6_linear_1024_305)"/>
<path d="M693.06 164.866L662.455 231.925V289.709H693.06V164.866Z" fill="url(#paint7_linear_1024_305)"/>
<path d="M738.36 218.298L768.965 148.742V122.774L800.996 94.9521H706.4V122.774H738.36V218.298Z" fill="url(#paint8_linear_1024_305)"/>
<path d="M814.337 267.45L843.586 212.947L845.441 209.808L870.552 177.92L875.261 171.071L903.154 130.408L904.438 128.482L905.009 127.697L900.515 113.572L895.521 106.509L888.173 100.873L879.113 97.1637L867.984 95.2375L854.501 94.9521H814.337V122.774H844.941H859.709L861.92 122.917L864.988 123.131L868.911 125.057L871.622 127.697L873.334 129.908L874.547 134.189L875.261 140.681V152.666V164.08V169.573L905.58 132.191L905.865 148.885L905.508 162.653L903.154 174.567L897.233 185.767L887.745 193.258L884.677 194.328L888.458 195.826L897.804 203.53L902.013 210.736L905.794 227.072L905.865 253.61L906.436 276.582L906.864 280.363L908.719 287.711L909.503 289.708H878.328L876.83 275.797L875.261 247.119L875.546 235.205L875.261 225.289L872.692 217.085L867.556 213.09L861.92 211.021L857.212 210.094H849.364L844.941 210.45V216.3V254.395V289.708H814.337V267.45Z" fill="url(#paint9_linear_1024_305)"/>
<path d="M433.742 233.137L464.346 204.03L464.418 137.257L464.917 133.191L466.415 128.268L467.699 126.128L469.84 123.774L471.48 122.632L473.478 121.634L475.119 121.134L478.757 120.635H482.609L485.178 121.134L487.46 121.848L489.101 122.704L490.813 123.988L492.882 126.342L494.594 129.766L495.379 132.691L495.95 136.543L496.092 160.656L524.699 134.831L523.13 124.487L520.419 116.354L516.995 110.077L512.001 104.084L506.865 99.8751L502.014 97.2356L496.592 95.0954L490.599 93.6686L484.107 92.8839L479.399 92.7412L474.263 92.9552L466.344 94.0253L461.065 95.4521L456.713 97.2356L452.647 99.4471L448.295 102.586L443.872 107.152L440.519 112.074L437.594 118.209L436.025 123.132L434.241 132.548L433.742 141.68V233.137Z" fill="url(#paint10_linear_1024_305)"/>
<path d="M0.142599 233.137L30.7471 204.03L30.8184 137.257L31.3178 133.191L32.8159 128.268L34.1 126.128L36.2402 123.774L37.881 122.632L39.8785 121.634L41.5193 121.134L45.1576 120.635H49.0099L51.5781 121.134L53.7897 121.848L55.5018 122.704L57.2139 123.988L59.2828 126.342L60.9949 129.766L61.7796 132.691L62.3503 136.543L62.493 160.656L91.1 134.831L89.4592 124.487L86.8197 116.354L83.3954 110.077L78.4017 104.084L73.2652 99.8751L68.4142 97.2356L62.9924 95.0954L56.9999 93.6686L50.508 92.8839L45.7997 92.7412L40.6632 92.9552L32.7446 94.0253L27.4655 95.4521L23.1138 97.2356L19.0475 99.4471L14.6958 102.586L10.2728 107.152L6.91982 112.074L3.99491 118.209L2.42545 123.132L0.641973 132.548L0.142599 141.68V233.137Z" fill="url(#paint11_linear_1024_305)"/>
<path fill-rule="evenodd" clip-rule="evenodd" d="M237.755 0.190243C236.721 0.604614 235.877 1.53457 235.559 2.61089C235.315 3.43722 235.399 4.70611 235.745 5.42662C236.276 6.53396 237.008 7.14865 238.166 7.45982L238.803 7.63081L240.7 11.5467C241.743 13.7003 243.53 17.3954 244.67 19.758C245.81 22.1206 246.975 24.5251 247.258 25.1014C247.541 25.6776 248.866 28.4122 250.203 31.1781C251.539 33.9441 253.329 37.6452 254.181 39.4027C255.68 42.4959 260.892 53.2621 262.803 57.2139C263.318 58.2799 263.754 59.1707 263.772 59.1934C263.789 59.2162 264.257 59.0662 264.812 58.8603C265.367 58.6544 266.143 58.3859 266.536 58.2637L267.251 58.0416L266.817 57.1825C266.578 56.7099 265.245 53.966 263.854 51.0847C262.463 48.2035 260.297 43.7245 259.042 41.1314C257.786 38.5383 255.72 34.2715 254.451 31.6496C253.181 29.0277 250.408 23.2993 248.287 18.9198C246.166 14.5404 243.879 9.81205 243.205 8.4123L241.979 5.8674L242.209 5.32154C242.398 4.87322 242.44 4.59778 242.44 3.78035C242.441 2.92237 242.406 2.70371 242.183 2.1962C241.831 1.39637 241.336 0.841084 240.601 0.421788C240.056 0.110407 239.885 0.0667166 239.102 0.0379044C238.438 0.0133879 238.102 0.0514202 237.755 0.190243ZM309.021 0.23058C308.384 0.491461 307.549 1.2894 307.207 1.96371C306.672 3.01855 306.642 4.33103 307.129 5.40347L307.325 5.83555L305.376 9.86318C301.384 18.1168 298.215 24.6638 293.032 35.369C280.981 60.2592 282.036 58.0452 282.2 58.0939C282.269 58.1143 283.028 58.3742 283.888 58.6715C284.748 58.9687 285.484 59.1749 285.523 59.1296C285.562 59.0844 286.598 56.9729 287.826 54.4374C289.053 51.902 290.445 49.026 290.92 48.0464C291.685 46.4682 294.722 40.1939 299.54 30.2352C300.404 28.4488 301.852 25.455 302.757 23.5822C303.663 21.7094 305.009 18.9277 305.75 17.4007C306.491 15.8736 307.865 13.038 308.805 11.0993L310.513 7.57423L310.942 7.51147C312.446 7.29166 313.754 5.7488 313.883 4.04406C313.971 2.87198 313.441 1.53174 312.613 0.832283C311.65 0.0187313 310.15 -0.232406 309.021 0.23058ZM272.059 60.9947C263.523 61.8656 255.752 67.2455 251.429 75.277C250.655 76.7149 249.465 79.4899 249.465 79.8578C249.465 79.9697 299.732 79.9826 299.792 79.8707C299.815 79.8275 299.684 79.3914 299.5 78.9016C298.246 75.5636 296.325 72.3765 294.015 69.802C289.403 64.6626 283.691 61.6895 277.083 60.9888C275.922 60.8656 273.294 60.8686 272.059 60.9947ZM244.259 83.7211V85.607H274.613H304.968V83.7211V81.8352H274.613H244.259V83.7211Z" fill="#8ED9C0"/>
<defs>
<linearGradient id="paint0_linear_1024_305" x1="76.7808" y1="238.375" x2="25.0256" y2="335.057" gradientUnits="userSpaceOnUse">
<stop stop-color="#00734D"/>
<stop offset="0.038" stop-color="#007A51"/>
<stop offset="0.1201" stop-color="#008658"/>
<stop offset="0.2171" stop-color="#008F5D"/>
<stop offset="0.337" stop-color="#009661"/>
<stop offset="0.5052" stop-color="#009A63"/>
<stop offset="0.9724" stop-color="#009B63"/>
</linearGradient>
<linearGradient id="paint1_linear_1024_305" x1="510.248" y1="238.375" x2="458.492" y2="335.057" gradientUnits="userSpaceOnUse">
<stop stop-color="#00734D"/>
<stop offset="0.038" stop-color="#007A51"/>
<stop offset="0.1201" stop-color="#008658"/>
<stop offset="0.2171" stop-color="#008F5D"/>
<stop offset="0.337" stop-color="#009661"/>
<stop offset="0.5052" stop-color="#009A63"/>
<stop offset="0.9724" stop-color="#009B63"/>
</linearGradient>
<linearGradient id="paint2_linear_1024_305" x1="341.926" y1="275.816" x2="422.894" y2="275.816" gradientUnits="userSpaceOnUse">
<stop stop-color="#00734D"/>
<stop offset="0.2374" stop-color="#008255"/>
<stop offset="0.5258" stop-color="#008F5D"/>
<stop offset="0.7885" stop-color="#009862"/>
<stop offset="1" stop-color="#009B63"/>
</linearGradient>
<linearGradient id="paint3_linear_1024_305" x1="109.893" y1="192.346" x2="206.445" y2="192.346" gradientUnits="userSpaceOnUse">
<stop stop-color="#00734D"/>
<stop offset="0.2374" stop-color="#008255"/>
<stop offset="0.5258" stop-color="#008F5D"/>
<stop offset="0.7885" stop-color="#009862"/>
<stop offset="1" stop-color="#009B63"/>
</linearGradient>
<linearGradient id="paint4_linear_1024_305" x1="543.637" y1="192.347" x2="640.189" y2="192.347" gradientUnits="userSpaceOnUse">
<stop stop-color="#00734D"/>
<stop offset="0.2374" stop-color="#008255"/>
<stop offset="0.5258" stop-color="#008F5D"/>
<stop offset="0.7885" stop-color="#009862"/>
<stop offset="1" stop-color="#009B63"/>
</linearGradient>
<linearGradient id="paint5_linear_1024_305" x1="254.013" y1="192.346" x2="327.742" y2="192.346" gradientUnits="userSpaceOnUse">
<stop stop-color="#00734D"/>
<stop offset="0.2374" stop-color="#008255"/>
<stop offset="0.5258" stop-color="#008F5D"/>
<stop offset="0.7885" stop-color="#009862"/>
<stop offset="1" stop-color="#009B63"/>
</linearGradient>
<linearGradient id="paint6_linear_1024_305" x1="951.62" y1="192.346" x2="1025.35" y2="192.346" gradientUnits="userSpaceOnUse">
<stop stop-color="#00734D"/>
<stop offset="0.2374" stop-color="#008255"/>
<stop offset="0.5258" stop-color="#008F5D"/>
<stop offset="0.7885" stop-color="#009862"/>
<stop offset="1" stop-color="#009B63"/>
</linearGradient>
<linearGradient id="paint7_linear_1024_305" x1="662.437" y1="227.29" x2="693.042" y2="227.29" gradientUnits="userSpaceOnUse">
<stop stop-color="#00734D"/>
<stop offset="0.2374" stop-color="#008255"/>
<stop offset="0.5258" stop-color="#008F5D"/>
<stop offset="0.7885" stop-color="#009862"/>
<stop offset="1" stop-color="#009B63"/>
</linearGradient>
<linearGradient id="paint8_linear_1024_305" x1="706.383" y1="156.621" x2="800.984" y2="156.621" gradientUnits="userSpaceOnUse">
<stop stop-color="#00734D"/>
<stop offset="0.2374" stop-color="#008255"/>
<stop offset="0.5258" stop-color="#008F5D"/>
<stop offset="0.7885" stop-color="#009862"/>
<stop offset="1" stop-color="#009B63"/>
</linearGradient>
<linearGradient id="paint9_linear_1024_305" x1="814.34" y1="192.346" x2="909.491" y2="192.346" gradientUnits="userSpaceOnUse">
<stop stop-color="#00734D"/>
<stop offset="0.2374" stop-color="#008255"/>
<stop offset="0.5258" stop-color="#008F5D"/>
<stop offset="0.7885" stop-color="#009862"/>
<stop offset="1" stop-color="#009B63"/>
</linearGradient>
<linearGradient id="paint10_linear_1024_305" x1="475.227" y1="171.375" x2="405.017" y2="49.7686" gradientUnits="userSpaceOnUse">
<stop stop-color="#00734D"/>
<stop offset="0.039" stop-color="#007A51"/>
<stop offset="0.1232" stop-color="#008658"/>
<stop offset="0.2225" stop-color="#008F5D"/>
<stop offset="0.3454" stop-color="#009661"/>
<stop offset="0.5179" stop-color="#009A63"/>
<stop offset="0.9967" stop-color="#009B63"/>
</linearGradient>
<linearGradient id="paint11_linear_1024_305" x1="41.6228" y1="171.375" x2="-28.5871" y2="49.7686" gradientUnits="userSpaceOnUse">
<stop stop-color="#00734D"/>
<stop offset="0.039" stop-color="#007A51"/>
<stop offset="0.1232" stop-color="#008658"/>
<stop offset="0.2225" stop-color="#008F5D"/>
<stop offset="0.3454" stop-color="#009661"/>
<stop offset="0.5179" stop-color="#009A63"/>
<stop offset="0.9967" stop-color="#009B63"/>
</linearGradient>
</defs>
</svg>
